<svg width="300" height="351" viewBox="0 0 300 351" fill="none" xmlns="http://www.w3.org/2000/svg">
<path d="M25 155.5C25 139.676 28.2332 124.006 34.5151 109.387C40.7969 94.7669 50.0043 81.4831 61.6117 70.2936C73.219 59.1042 86.9989 50.2282 102.165 44.1725C117.33 38.1168 133.585 35 150 35C166.415 35 182.67 38.1168 197.835 44.1725C213.001 50.2282 226.781 59.1042 238.388 70.2936C249.996 81.4831 259.203 94.7669 265.485 109.387C271.767 124.006 275 139.676 275 155.5L257.722 155.5C257.722 141.863 254.936 128.36 249.522 115.761C244.109 103.162 236.174 91.7139 226.171 82.0711C216.168 72.4282 204.293 64.7791 191.224 59.5604C178.154 54.3418 164.146 51.6558 150 51.6558C135.854 51.6558 121.846 54.3418 108.776 59.5604C95.707 64.7791 83.8318 72.4282 73.8289 82.071C63.826 91.7139 55.8912 103.162 50.4776 115.761C45.0641 128.359 42.2778 141.863 42.2778 155.5H25Z" fill="#00584A"/>
<path d="M69 231H230.5" stroke="#00584A" stroke-width="12"/>
<rect x="123.756" y="88.957" width="52.6951" height="26.9081" rx="13.4541" fill="#00584A"/>
<path d="M149.5 57C163.092 57 176.55 59.6776 189.107 64.8789C201.665 70.0803 213.075 77.7036 222.686 87.3145C232.296 96.9253 239.92 108.335 245.121 120.893C250.322 133.45 253 146.908 253 160.5H46C46 146.908 48.6776 133.45 53.8789 120.893C59.0803 108.335 66.7036 96.9253 76.3145 87.3145C85.9253 77.7036 97.3354 70.0803 109.893 64.8789C122.45 59.6776 135.908 57 149.5 57ZM148.939 71.0166C134.911 70.8154 127.796 72.3928 114.769 77.1201C110.171 78.7884 105.388 81.5018 101.21 84.2393C93.0932 89.5568 89.0001 98.9605 89 108.664V159H210V108.883C210 99.0534 205.798 89.5602 197.655 84.0537C193.707 81.3838 189.329 78.757 185.352 77.1201C173.55 72.2639 161.895 71.2024 148.939 71.0166Z" fill="#00584A"/>
<path d="M0 205C0 196.163 7.16344 189 16 189H26V225H0V205Z" fill="#00584A"/>
<path d="M0 233H26V321H16C7.16344 321 0 313.837 0 305V233Z" fill="#00584A"/>
<path d="M300 204C300 195.163 292.837 188 284 188H274V224H300V204Z" fill="#00584A"/>
<path d="M300 232H274V320H284C292.837 320 300 312.837 300 304V232Z" fill="#00584A"/>
<path d="M275 311C275 333.091 257.091 351 235 351H65C42.9086 351 25 333.091 25 311V159H275V311ZM76 188C64.9543 188 56 196.954 56 208V301C56 312.046 64.9543 321 76 321H223C234.046 321 243 312.046 243 301V208C243 196.954 234.046 188 223 188H76Z" fill="#00584A"/>
<path d="M35 45C35 38.3726 40.3726 33 47 33H72C78.6274 33 84 38.3726 84 45V52.5L35 109V45Z" fill="#00584A"/>
<path d="M264 45C264 38.3726 258.627 33 252 33H227C220.373 33 215 38.3726 215 45V52.5L264 109V45Z" fill="#00584A"/>
<path d="M93.3047 248.269C96.102 249.795 97.9999 252.763 98 256.174V264.783C97.9998 269.754 93.9705 273.783 89 273.783C84.0295 273.783 80.0002 269.754 80 264.783V256.174C80.0001 252.763 81.898 249.795 84.6953 248.269V237H93.3047V248.269Z" fill="#00584A"/>
<path d="M171 0C187.569 7.73112e-07 201 13.4315 201 30V47H98V30C98 13.4315 111.431 7.73113e-07 128 0H171ZM114 20C112.895 20 112 20.8954 112 22V32C112 33.1046 112.895 34 114 34H187C188.105 34 189 33.1046 189 32V22C189 20.8954 188.105 20 187 20H114Z" fill="#00584A"/>
</svg>
